Coordinates
version=1
nRows=17
nColumns=24
inDegrees=yes

Units are S.I. units (second, meters, Newtons, ...)
Angles are in degrees.

endheader
time	pelvis_tilt	pelvis_list	pelvis_rotation	pelvis_tx	pelvis_ty	pelvis_tz	hip_flexion_r	hip_adduction_r	hip_rotation_r	knee_angle_r	ankle_angle_r	subtalar_angle_r	mtp_angle_r	hip_flexion_l	hip_adduction_l	hip_rotation_l	knee_angle_l	ankle_angle_l	subtalar_angle_l	mtp_angle_l	lumbar_extension	lumbar_bending	lumbar_rotation
      1.09183333	     -0.55262808	      1.66692263	     -5.99302000	     -0.03122183	      0.99120425	      0.30156944	    -14.37548335	     -0.85658375	     -1.08074937	    -10.48622523	     15.08345165	     -0.38968772	      8.96366835	     21.26704143	      0.14884545	     -9.58282135	      5.27241381	      1.15703007	     -5.76205096	      7.84175339	     -4.00896517	     -1.73906146	     12.64841839
      1.09600000	     -0.54300058	      1.79173180	     -6.06545446	     -0.02506452	      0.99067023	      0.30119947	    -14.52788812	     -1.08198069	     -1.04059340	    -10.91449021	     15.01470853	     -0.40492096	      8.97432734	     21.28749232	      0.28709179	     -9.55539190	      4.99965235	      1.20519250	     -5.92760427	      7.85085559	     -3.97383204	     -1.89831329	     12.68361201
      1.10016667	     -0.51097167	      1.94668901	     -6.15799996	     -0.01887533	      0.99018011	      0.30080516	    -14.64245718	     -1.36208468	     -1.09684006	    -11.47072698	     15.08592679	     -0.13237147	      9.04968586	     21.24519694	      0.46380861	     -9.41329772	      4.74609790	      1.08664849	     -6.37900638	      7.89784129	     -3.94863012	     -2.10914111	     12.90614367
      1.10433333	     -0.49271967	      2.10702188	     -6.22460572	     -0.01263380	      0.98974051	      0.30040752	    -14.77459671	     -1.62535175	     -1.05623837	    -11.95488278	     14.96424961	     -0.17479180	      9.06756402	     21.26601409	      0.64464641	     -9.36378482	      4.32584263	      1.07061295	     -6.57478822	      7.91046142	     -3.91577868	     -2.30863604	     12.93611002
      1.10850000	     -0.47534601	      2.29231116	     -6.32180681	     -0.00635715	      0.98930861	      0.29999654	    -14.84003421	     -1.93963238	     -1.10506685	    -12.57212664	     14.98999781	      0.07125175	      9.19696841	     21.23320382	      0.85521502	     -9.14080352	      3.96896464	      0.83580772	     -7.16874670	      7.98596467	     -3.85328248	     -2.55539360	     13.15149718
      1.11266667	     -0.45492114	      2.48522659	     -6.40095843	     -0.00003528	      0.98893638	      0.29957755	    -14.92072736	     -2.24777608	     -1.09626733	    -13.16104047	     14.89189840	      0.13051362	      9.36226222	     21.21843870	      1.07747335	     -8.94776420	      3.51822812	      0.62428330	     -7.65155189	      8.08198681	     -3.79878937	     -2.80238815	     13.25961061
      1.11683333	     -0.42031143	      2.69389366	     -6.47913788	      0.00632671	      0.98861601	      0.29913582	    -14.99815973	     -2.57558604	     -1.09834452	    -13.78484341	     14.76918138	      0.19145100	      9.55653671	     21.19154461	      1.32130232	     -8.76598663	      3.02318730	      0.37572048	     -8.11467716	      8.18975158	     -3.75479639	     -3.06759740	     13.36872481
      1.12100000	     -0.40549239	      2.90809926	     -6.55442023	      0.01272326	      0.98830978	      0.29868073	    -15.03626413	     -2.90485813	     -1.08675108	    -14.44123670	     14.60561406	      0.21585800	      9.77949259	     21.18671868	      1.57188584	     -8.56474028	      2.49249624	      0.08364133	     -8.59227704	      8.30771888	     -3.68109015	     -3.33872309	     13.47069086
      1.12516667	     -0.38207464	      3.13302429	     -6.62542906	      0.01915892	      0.98805238	      0.29820544	    -15.06575407	     -3.24565944	     -1.07997930	    -15.13053984	     14.40739544	      0.23913993	     10.06952602	     21.16524609	      1.84023620	     -8.32969083	      1.95033403	     -0.25985772	     -9.10930794	      8.45234397	     -3.61524305	     -3.61794982	     13.57636216
      1.12933333	     -0.34364838	      3.36062319	     -6.69234335	      0.02561784	      0.98784851	      0.29771183	    -15.09154507	     -3.58916667	     -1.07810109	    -15.85572237	     14.16755251	      0.22817439	     10.40063470	     21.12861197	      2.11683731	     -8.10863678	      1.38732128	     -0.64778967	     -9.61314630	      8.60722908	     -3.55769347	     -3.90765604	     13.66092028
      1.13350000	     -0.31227782	      3.60168601	     -6.75952633	      0.03211156	      0.98767411	      0.29719888	    -15.08580205	     -3.94617620	     -1.07312225	    -16.62163297	     13.89219010	      0.21015562	     10.75690881	     21.09619853	      2.40973370	     -7.88713083	      0.81439817	     -1.06596409	    -10.09559864	      8.76121251	     -3.49165446	     -4.20599226	     13.74275420
      1.13766667	     -0.25014487	      3.84136932	     -6.78914898	      0.03863695	      0.98756741	      0.29664895	    -15.11788700	     -4.28955254	     -1.08172310	    -17.37728585	     13.50665948	      0.00599444	     15.45905832	     21.04387230	      2.71616265	     -7.65031249	      0.20291791	     -1.47400555	    -10.56150857	     10.68861142	     -3.45786322	     -4.52331399	     13.72619859
      1.14183333	     -0.21896790	      4.09811305	     -6.85087458	      0.04521119	      0.98748439	      0.29611934	    -15.07882551	     -4.65886238	     -1.06734892	    -18.19239181	     13.08115908	     -0.03875529	     15.47890645	     21.02816794	      3.02202356	     -7.56033460	     -0.43332472	     -1.86035184	    -10.79240284	     10.69702183	     -3.38026918	     -4.84427065	     13.80484490
      1.14600000	     -0.19552059	      4.33663840	     -6.91024985	      0.05172633	      0.98740065	      0.29552883	    -14.96666539	     -5.01580901	     -1.09187075	    -19.13554818	     12.71944309	     -0.04217012	     15.58072076	     20.98939813	      3.32333407	     -7.30343342	     -1.00035147	     -2.39419132	    -11.35367750	     10.72279360	     -3.29651677	     -5.11430901	     13.92531836
      1.15016667	     -0.15182909	      4.58398478	     -6.94746172	      0.05828987	      0.98739528	      0.29492788	    -14.87982497	     -5.37008634	     -1.10146341	    -20.06550891	     12.25228318	     -0.14273870	     15.72325976	     20.93877177	      3.63895547	     -7.10650018	     -1.59801092	     -2.86638479	    -11.76144163	     10.75015644	     -3.23487649	     -5.41794567	     13.96195751
      1.15433333	     -0.10329665	      4.82712304	     -6.96430222	      0.06484121	      0.98742371	      0.29428780	    -14.77600973	     -5.71528330	     -1.12783974	    -21.03332619	     11.75925006	     -0.22590260	     15.98359044	     20.89274476	      3.95800292	     -6.89404879	     -2.22026418	     -3.34046068	    -12.22340557	     10.79023012	     -3.18508994	     -5.72278986	     14.00516789
      1.15850000	     -0.01941401	      5.06908902	     -6.97884099	      0.07141799	      0.98754761	      0.29365666	    -14.68716518	     -6.06023221	     -1.16248853	    -22.03680000	     11.16239074	     -0.38917737	     16.05191335	     20.82034638	      4.27017729	     -6.82872719	     -2.87882165	     -3.67595431	    -12.34688768	     10.79713396	     -3.16175320	     -6.03323926	     14.00107658
